<?xml version="1.0" encoding="UTF-8" standalone="no"?>
<!DOCTYPE svg PUBLIC "-//W3C//DTD SVG 1.1//EN" "http://www.w3.org/Graphics/SVG/1.1/DTD/svg11.dtd">
<svg xmlns="http://www.w3.org/2000/svg" xmlns:xlink="http://www.w3.org/1999/xlink" version="1.1" width="2004.78pt" height="1125pt" viewBox="0 0 2004.78 1125">
<g enable-background="new">
<path transform="matrix(1,0,0,-1,0,1125)" d="M 0 0 L 2004.78 0 L 2004.78 1125 L 0 1125 Z " fill="#64bc46"/>
<clipPath id="cp0">
<path transform="matrix(1,0,0,-1,0,1125)" d="M 61.224 0 L 1981.224 0 L 1981.224 1117.1 L 61.224 1117.1 Z "/>
</clipPath>
<g clip-path="url(#cp0)">
<path transform="matrix(1,0,0,-1,212.2244,701.7406)" d="M 0 0 C 1.93 0 1.934 3 0 3 C -1.93 3 -1.934 0 0 0 " fill="#f47732"/>
<path transform="matrix(1,0,0,-1,1082.3715,420.76319)" d="M 0 0 C 0 -2.685 -.108 -6.683 -.335 -12.007 C -.549 -17.341 -.668 -21.328 -.668 -23.99 C -.668 -24.575 -.371 -24.861 .203 -24.861 C .633 -24.861 1.264 -24.825 2.136 -24.753 C 2.996 -24.682 3.64 -24.646 4.057 -24.646 C 4.499 -24.646 5.156 -24.682 6.016 -24.753 C 6.875 -24.825 7.519 -24.861 7.936 -24.861 C 8.618 -24.861 8.951 -24.611 8.951 -24.122 C 8.951 -21.447 8.855 -17.425 8.653 -12.067 C 8.45 -6.707 8.355 -2.685 8.355 0 C 8.355 4.285 8.462 9.99 8.665 17.104 C 16.268 16.818 20.397 16.675 21.054 16.675 C 21.472 16.675 21.674 16.985 21.674 17.593 C 21.674 17.915 21.638 18.404 21.578 19.037 C 21.507 19.682 21.472 20.147 21.472 20.458 C 21.472 22.976 21.495 24.11 21.543 23.847 C 21.476 24.242 21.143 24.441 20.604 24.463 C 20.374 24.423 18.859 24.312 16.017 24.134 C 10.718 23.775 6.91 23.609 4.583 23.609 C 1.945 23.609 -3.497 23.847 -11.745 24.337 L -12.175 24.372 C -12.449 24.372 -12.652 24.217 -12.76 23.918 C -13.045 22.475 -13.214 21.341 -13.249 20.529 C -13.296 20.338 -13.451 19.73 -13.714 18.703 C -13.917 17.915 -14.024 17.307 -14.024 16.889 C -14.024 16.663 -13.881 16.543 -13.607 16.543 C -10.802 16.543 -6.398 16.722 -.383 17.104 C -.132 9.847 0 4.154 0 0 " fill="#ffffff"/>
<path transform="matrix(1,0,0,-1,1102.9002,396.2837)" d="M 0 0 L .076 -.017 C .137 -.006 .126 0 0 0 " fill="#ffffff"/>
<path transform="matrix(1,0,0,-1,1107.7577,410.23658)" d="M 0 0 C .299 -8.951 .454 -14.799 .454 -17.556 L .454 -34.445 C .454 -35.078 .716 -35.388 1.253 -35.388 C 1.981 -35.388 3.068 -35.399 4.511 -35.424 C 5.956 -35.447 7.041 -35.459 7.757 -35.459 C 8.247 -35.459 8.498 -35.125 8.498 -34.445 L 8.498 -13.678 C 8.498 -12.531 9.596 -11.266 11.816 -9.894 C 13.893 -8.617 15.564 -7.973 16.854 -7.973 C 20.816 -7.973 22.797 -10.073 22.797 -14.263 C 22.797 -15.361 22.833 -16.995 22.916 -19.179 C 23 -21.364 23.036 -22.987 23.036 -24.062 C 23.036 -25.195 23 -26.901 22.916 -29.169 C 22.833 -31.425 22.797 -33.12 22.797 -34.23 C 22.797 -35.006 23.083 -35.388 23.668 -35.388 C 24.396 -35.388 25.482 -35.399 26.962 -35.424 C 28.431 -35.447 29.516 -35.459 30.245 -35.459 C 30.734 -35.459 30.973 -35.029 30.973 -34.159 C 30.973 -32.69 30.96 -30.482 30.913 -27.522 C 30.865 -24.563 30.842 -22.331 30.842 -20.839 C 30.842 -20.123 30.853 -19.001 30.889 -17.496 C 30.925 -15.993 30.949 -14.882 30.949 -14.167 C 30.949 -10.013 30.351 -6.981 29.158 -5.072 C 27.5 -2.459 24.492 -1.157 20.1 -1.157 C 17.556 -1.157 15.146 -1.862 12.866 -3.294 C 10.98 -4.714 9.441 -5.919 8.247 -6.922 C 8.068 -6.898 7.973 -6.623 7.973 -6.087 C 7.973 -3.891 8.056 -.596 8.236 3.796 C 8.402 8.188 8.498 11.483 8.498 13.667 C 8.498 14.108 8.343 14.335 8.045 14.335 C 7.591 14.335 6.887 14.252 5.908 14.073 C 4.929 13.893 4.19 13.81 3.7 13.81 C 1.468 13.81 .143 13.738 -.251 13.607 C -.525 13.511 -.668 13.26 -.668 12.867 C -.668 12.772 -.645 12.593 -.597 12.307 C -.251 6.875 -.048 2.77 0 0 " fill="#ffffff"/>
<path transform="matrix(1,0,0,-1,1153.5776,419.9276)" d="M 0 0 C 1.671 1.73 3.569 2.591 5.717 2.591 C 7.627 2.591 9.345 1.85 10.874 .358 C 12.401 -1.135 13.165 -2.853 13.165 -4.786 C 13.165 -5.061 12.485 -5.299 11.136 -5.49 C 6.339 -6.182 2.208 -6.541 -1.24 -6.541 C -2.077 -6.541 -2.494 -6.29 -2.494 -5.801 C -2.494 -3.651 -1.671 -1.719 0 0 M 7.436 -26.568 C 12.795 -26.568 17.188 -24.754 20.614 -21.113 C 20.983 -20.72 21.173 -20.457 21.173 -20.314 C 21.173 -20.194 20.768 -19.347 19.944 -17.772 C 19.133 -16.208 18.692 -15.396 18.644 -15.349 C 18.584 -15.301 18.452 -15.277 18.274 -15.277 C 17.904 -15.575 17.521 -15.886 17.151 -16.184 C 14.072 -18.56 10.695 -19.752 7.007 -19.752 C 4.87 -19.752 2.865 -19.061 .991 -17.688 C -.966 -16.244 -2.088 -14.502 -2.399 -12.449 C 11.028 -11.446 18.25 -10.754 19.252 -10.384 C 20.745 -9.799 21.484 -8.641 21.484 -6.923 C 21.484 -2.447 20.052 1.361 17.188 4.476 C 14.252 7.698 10.587 9.309 6.207 9.309 C 1.492 9.309 -2.482 7.448 -5.717 3.748 C -8.796 .18 -10.336 -4.01 -10.336 -8.809 C -10.336 -14.191 -8.724 -18.5 -5.502 -21.722 C -2.291 -24.958 2.017 -26.568 7.436 -26.568 " fill="#ffffff"/>
<path transform="matrix(1,0,0,-1,1157.6607,501.6494)" d="M 0 0 C 2.526 2.942 5.663 4.422 9.427 4.422 C 13.207 4.422 16.296 2.927 18.724 -.048 C 21.008 -2.815 22.149 -6.129 22.149 -9.989 C 22.149 -13.737 20.992 -17.002 18.675 -19.801 C 16.182 -22.777 13.11 -24.273 9.427 -24.273 C 5.663 -24.273 2.526 -22.809 0 -19.881 C -2.412 -17.099 -3.618 -13.802 -3.618 -9.989 C -3.618 -6.161 -2.412 -2.831 0 0 M 6.933 -34.117 C 9.41 -34.117 11.904 -33.49 14.381 -32.235 C 15.989 -31.447 17.709 -30.305 19.561 -28.793 C 21.072 -27.57 21.924 -26.958 22.101 -26.958 C 22.391 -26.958 22.696 -28.053 23.002 -30.257 C 23.324 -32.461 23.774 -33.554 24.369 -33.554 C 25.222 -33.554 26.509 -33.458 28.262 -33.249 C 29.999 -33.039 31.302 -32.943 32.17 -32.943 C 33.039 -32.943 33.458 -32.493 33.425 -31.576 L 33.377 -30.916 C 32.589 -17.132 32.186 -10.07 32.186 -9.764 C 32.186 -4.537 32.814 1.656 34.036 8.862 C 34.133 9.296 34.166 9.586 34.166 9.699 C 34.166 10.149 32.878 10.648 30.305 11.21 C 27.989 11.677 26.397 11.919 25.544 11.919 C 25.013 11.919 24.578 10.937 24.224 8.943 C 23.886 6.964 23.613 5.982 23.437 5.982 C 23.34 5.982 23.244 6.032 23.148 6.128 C 22.021 7.318 21.185 8.235 20.654 8.862 C 17.067 12.193 12.868 13.849 8.059 13.849 C 1.255 13.849 -4.245 11.484 -8.428 6.738 C -12.417 2.186 -14.411 -3.587 -14.411 -10.552 C -14.411 -16.745 -12.433 -22.166 -8.477 -26.814 C -4.294 -31.688 .836 -34.117 6.933 -34.117 " fill="#ffffff"/>
<path transform="matrix(1,0,0,-1,1136.1226,469.513)" d="M 0 0 C 0 .692 -.321 1.03 -.98 1.03 C -1.576 1.03 -2.477 .982 -3.667 .901 C -4.857 .806 -5.757 .756 -6.353 .756 C -6.916 .756 -7.785 .806 -8.927 .901 C -10.069 .982 -10.922 1.03 -11.5 1.03 C -12.127 1.03 -12.433 .516 -12.433 -.513 C -12.433 -4.567 -12.289 -10.679 -11.982 -18.851 C -11.694 -27.022 -11.549 -33.151 -11.549 -37.236 C -11.549 -41.948 -11.645 -44.957 -11.87 -46.276 C -12.433 -45.681 -13.045 -44.973 -13.705 -44.152 C -28.598 -24.545 -39.665 -9.779 -46.888 .146 C -47.579 1.046 -48.061 1.512 -48.352 1.512 C -48.946 1.512 -49.766 1.416 -50.796 1.223 C -52.018 .998 -52.854 .886 -53.289 .854 C -54.463 .756 -56.056 .692 -58.098 .66 C -58.886 .627 -59.257 .371 -59.225 -.096 L -59.176 -.706 C -58.935 -5.854 -58.774 -9.73 -58.71 -12.305 C -58.436 -22.196 -58.292 -29.049 -58.292 -32.845 C -58.292 -36.335 -58.453 -41.563 -58.79 -48.512 C -59.112 -55.477 -59.273 -60.688 -59.273 -64.13 C -59.273 -64.758 -58.886 -65.079 -58.098 -65.079 C -57.536 -65.079 -56.699 -65.031 -55.573 -64.934 C -54.463 -64.838 -53.628 -64.79 -53.064 -64.79 C -52.517 -64.79 -51.713 -64.838 -50.603 -64.934 C -49.509 -65.031 -48.689 -65.079 -48.158 -65.079 C -47.532 -65.079 -47.209 -64.564 -47.209 -63.519 C -47.209 -58.693 -47.289 -51.422 -47.45 -41.724 C -47.611 -32.041 -47.692 -24.771 -47.692 -19.928 C -47.692 -18.642 -47.532 -17.999 -47.209 -17.999 C -46.871 -18.32 -45.632 -19.848 -43.493 -22.615 C -29.692 -40.743 -19.414 -54.383 -12.626 -63.519 C -11.838 -64.564 -11.162 -65.079 -10.599 -65.079 C -10.101 -65.079 -9.329 -65.031 -8.283 -64.934 C -7.254 -64.838 -6.482 -64.79 -5.983 -64.79 C -5.517 -64.79 -4.809 -64.838 -3.86 -64.934 C -2.911 -65.031 -2.203 -65.079 -1.737 -65.079 C -.949 -65.079 -.562 -64.564 -.562 -63.519 C -.562 -60.093 -.594 -54.978 -.659 -48.142 C -.723 -41.306 -.756 -36.175 -.756 -32.748 C -.756 -29.113 -.627 -23.644 -.369 -16.358 C -.128 -9.071 0 -3.618 0 0 " fill="#ffffff"/>
<path transform="matrix(1,0,0,-1,1372.1862,499.9615)" d="M 0 0 C 0 -3.732 -.032 -9.329 -.098 -16.793 C -.162 -24.256 -.193 -29.837 -.193 -33.554 C -.193 -34.277 .096 -34.63 .658 -34.63 L 9.65 -34.63 C 10.149 -34.63 10.406 -34.277 10.406 -33.554 C 10.406 -29.837 10.342 -24.256 10.214 -16.793 C 10.101 -9.329 10.037 -3.732 10.037 0 C 10.037 8.397 10.375 18.434 11.066 30.112 L 11.114 30.723 C 11.146 31.238 10.873 31.479 10.31 31.479 C 9.747 31.479 8.879 31.431 7.721 31.35 C 6.562 31.254 5.678 31.204 5.082 31.204 C 4.52 31.204 3.667 31.254 2.541 31.35 C 1.414 31.431 .563 31.479 0 31.479 C -.66 31.479 -.998 31.173 -.998 30.546 C -.998 27.184 -.837 22.102 -.499 15.297 C -.178 8.494 0 3.394 0 0 " fill="#ffffff"/>
<path transform="matrix(1,0,0,-1,1329.528,501.6494)" d="M 0 0 C 2.526 2.942 5.662 4.422 9.426 4.422 C 13.206 4.422 16.294 2.927 18.723 -.048 C 21.007 -2.815 22.149 -6.129 22.149 -9.989 C 22.149 -13.737 20.991 -17.002 18.674 -19.801 C 16.181 -22.777 13.109 -24.273 9.426 -24.273 C 5.662 -24.273 2.526 -22.809 0 -19.881 C -2.412 -17.099 -3.619 -13.802 -3.619 -9.989 C -3.619 -6.161 -2.412 -2.831 0 0 M 6.933 -34.117 C 9.409 -34.117 11.903 -33.49 14.381 -32.235 C 15.988 -31.447 17.709 -30.305 19.56 -28.793 C 21.072 -27.57 21.924 -26.958 22.101 -26.958 C 22.391 -26.958 22.696 -28.053 23.002 -30.257 C 23.323 -32.461 23.774 -33.554 24.369 -33.554 C 25.222 -33.554 26.509 -33.458 28.262 -33.249 C 29.999 -33.039 31.302 -32.943 32.17 -32.943 C 33.039 -32.943 33.457 -32.493 33.425 -31.576 L 33.377 -30.916 C 32.588 -17.132 32.186 -10.07 32.186 -9.764 C 32.186 -4.537 32.814 1.656 34.035 8.862 C 34.133 9.296 34.166 9.586 34.166 9.699 C 34.166 10.149 32.878 10.648 30.304 11.21 C 27.989 11.677 26.395 11.919 25.543 11.919 C 25.013 11.919 24.578 10.937 24.224 8.943 C 23.886 6.964 23.613 5.982 23.437 5.982 C 23.339 5.982 23.242 6.032 23.147 6.128 C 22.021 7.318 21.184 8.235 20.653 8.862 C 17.066 12.193 12.868 13.849 8.059 13.849 C 1.255 13.849 -4.245 11.484 -8.429 6.738 C -12.417 2.186 -14.412 -3.587 -14.412 -10.552 C -14.412 -16.745 -12.433 -22.166 -8.476 -26.814 C -4.295 -31.688 .836 -34.117 6.933 -34.117 " fill="#ffffff"/>
<path transform="matrix(1,0,0,-1,1286.0841,510.36799)" d="M 0 0 C 0 -2.574 -.032 -6.434 -.114 -11.549 C -.193 -16.664 -.226 -20.508 -.226 -23.05 C -.226 -23.839 .129 -24.224 .853 -24.224 C 1.833 -24.224 3.297 -24.24 5.276 -24.272 C 7.27 -24.304 8.734 -24.321 9.714 -24.321 C 10.439 -24.321 10.793 -23.887 10.793 -23.05 C 10.793 -21.281 10.729 -18.61 10.583 -15.04 C 10.439 -11.453 10.375 -8.782 10.375 -7.03 L 10.375 -1.834 C 10.375 2.428 10.696 5.244 11.356 6.595 C 12.466 8.831 14.991 9.94 18.948 9.94 C 19.64 9.94 20.652 9.876 21.988 9.731 C 23.323 9.586 24.319 9.522 24.979 9.522 C 25.51 9.522 25.831 9.876 25.928 10.6 C 26.394 13.431 26.636 16.567 26.636 20.025 C 26.636 20.685 25.398 21.023 22.952 21.023 C 21.039 21.023 19.463 20.83 18.24 20.444 C 16.76 20.042 15.312 19.415 13.914 18.562 C 12.626 17.741 11.323 16.937 10.037 16.117 L 9.811 16.02 C 9.393 16.02 9.119 16.953 8.958 18.803 C 8.799 20.653 8.477 21.586 7.962 21.586 C 8.219 21.586 6.643 21.264 3.249 20.637 C 1.158 20.38 -.482 20.203 -1.641 20.074 C -2.059 19.913 -2.252 19.656 -2.252 19.269 C -2.252 19.141 -2.22 18.965 -2.155 18.707 C -.724 13.995 0 7.753 0 0 " fill="#ffffff"/>
<path transform="matrix(1,0,0,-1,1248.0592,534.7848)" d="M 0 0 C 5.115 0 10.295 2.283 15.538 6.836 C 15.859 7.126 16.101 7.254 16.245 7.254 C 16.536 7.254 16.712 6.079 16.793 3.731 C 16.873 1.367 17.098 .193 17.485 .193 C 23.597 .193 26.797 .225 27.039 .29 C 27.634 .482 27.939 .885 27.939 1.511 C 27.939 3.812 27.875 7.238 27.731 11.806 C 27.586 16.374 27.521 19.816 27.521 22.1 C 27.521 24.433 27.602 27.907 27.794 32.539 C 27.988 37.172 28.085 40.646 28.085 42.93 C 28.085 44.04 27.617 44.588 26.717 44.588 L 18.932 44.588 C 17.646 44.588 17.002 43.815 17.002 42.272 C 17.002 28.036 16.921 19.752 16.776 17.387 C 16.681 15.506 15.2 13.543 12.337 11.5 C 9.635 9.554 7.303 8.573 5.324 8.573 C .675 8.573 -2.333 10.278 -3.684 13.671 C -4.472 15.554 -4.857 19.253 -4.857 24.738 C -4.857 27.006 -4.81 29.081 -4.713 30.963 C -4.681 32.218 -4.456 34.373 -4.005 37.413 C -3.603 40.277 -3.394 42.32 -3.394 43.541 C -3.394 44.233 -3.716 44.588 -4.344 44.588 C -5.26 44.588 -6.612 44.603 -8.444 44.636 C -10.262 44.668 -11.629 44.684 -12.546 44.684 C -13.302 44.684 -13.818 44.073 -14.091 42.834 C -15.265 37.784 -15.844 31.607 -15.844 24.32 C -15.844 16.246 -15.152 10.648 -13.769 7.543 C -11.534 2.525 -6.949 0 0 0 " fill="#ffffff"/>
<path transform="matrix(1,0,0,-1,1225.2019,525.0702)" d="M 0 0 C -.917 0 -2.316 -.209 -4.198 -.643 C -6.08 -1.061 -7.511 -1.27 -8.493 -1.27 C -10.841 -1.27 -12.402 -.466 -13.158 1.174 C -13.655 2.236 -13.914 4.135 -13.914 6.837 L -13.914 13.849 C -13.914 17.87 -13.833 20.991 -13.671 23.227 C -13.543 25.013 -13.367 25.914 -13.109 25.914 C -11.854 25.914 -9.957 25.833 -7.398 25.657 C -4.858 25.479 -2.96 25.398 -1.704 25.398 C -.82 25.398 -.385 25.689 -.385 26.299 C -.385 26.766 -.402 27.49 -.434 28.454 C -.466 29.436 -.482 30.159 -.482 30.627 C -.482 31.029 -.418 31.656 -.321 32.492 C -.209 33.329 -.144 33.923 -.144 34.309 C -.144 34.679 -.418 34.873 -.949 34.873 L -12.257 34.873 C -13.109 34.873 -13.527 35.323 -13.527 36.24 C -13.527 37.623 -13.431 39.699 -13.222 42.448 C -13.028 45.215 -12.915 47.291 -12.915 48.674 C -12.915 49.268 -13.286 49.623 -14.01 49.72 C -19.623 50.684 -22.583 51.167 -22.856 51.167 C -23.742 51.167 -24.175 50.024 -24.175 47.74 C -24.175 46.438 -24.143 44.508 -24.063 41.934 C -23.982 39.36 -23.95 37.446 -23.95 36.191 C -23.95 34.969 -24.674 34.326 -26.122 34.262 C -26.862 34.23 -27.633 34.214 -28.422 34.214 C -29.339 34.052 -29.838 33.602 -29.934 32.846 C -30.062 31.833 -30.127 30.883 -30.127 29.966 C -30.127 27.554 -29.789 26.267 -29.13 26.106 C -28.004 26.074 -26.846 26.058 -25.688 26.058 C -24.4 25.962 -23.757 25.27 -23.757 23.983 C -23.757 21.313 -23.821 17.292 -23.95 11.936 C -24.079 6.579 -24.127 2.573 -24.127 -.096 C -24.127 -6.756 -20.459 -10.085 -13.109 -10.085 C -7.576 -10.085 -3.522 -9.474 -.949 -8.251 C -.482 -8.026 -.176 -7.817 -.048 -7.592 C 0 -7.464 .048 -7.126 .08 -6.546 C .114 -6.112 .21 -5.163 .37 -3.683 C .499 -2.477 .563 -1.544 .563 -.852 C .563 -.288 .37 0 0 0 " fill="#ffffff"/>
<path transform="matrix(1,0,0,-1,1075.652,617.28396)" d="M 0 0 C 0 -.789 .402 -1.174 1.19 -1.174 C 3.378 -1.174 6.659 -1.126 11.035 -1.029 C 15.394 -.932 18.674 -.885 20.878 -.885 C 23.211 -.885 26.684 -1.029 31.349 -1.287 C 35.998 -1.56 39.473 -1.689 41.805 -1.689 C 42.689 -1.689 43.236 -1.239 43.446 -.321 C 43.928 1.528 44.153 4.649 44.153 9.056 C 44.153 9.652 43.832 9.94 43.172 9.94 C 42.673 9.94 41.95 9.86 41 9.667 C 39.842 9.474 39.119 9.361 38.829 9.329 C 32.925 8.766 24.176 8.492 12.595 8.492 C 12.015 8.492 11.742 11.967 11.742 18.948 C 11.742 20.589 11.758 23.066 11.791 26.395 L 11.791 33.843 C 11.791 37.204 11.919 42.223 12.16 48.915 C 12.418 55.605 12.547 60.625 12.547 63.954 C 12.547 64.549 12.16 64.855 11.404 64.855 C 10.841 64.855 9.956 64.806 8.766 64.71 C 7.576 64.613 6.691 64.565 6.129 64.565 C 5.534 64.565 4.649 64.613 3.49 64.71 C 2.332 64.806 1.463 64.855 .901 64.855 C .113 64.855 -.274 64.501 -.274 63.809 C -.274 60.157 -.113 54.705 .209 47.435 C .546 40.163 .707 34.695 .707 31.06 C .707 27.602 .595 22.422 .354 15.506 C .128 8.589 0 3.427 0 0 " fill="#ffffff"/>
<path transform="matrix(1,0,0,-1,1362.9465,585.5644)" d="M 0 0 C 2.284 -2.766 3.425 -6.081 3.425 -9.941 C 3.425 -13.688 2.267 -16.953 -.05 -19.752 C -2.543 -22.728 -5.615 -24.224 -9.298 -24.224 C -13.061 -24.224 -16.199 -22.76 -18.724 -19.832 C -21.137 -17.05 -22.343 -13.753 -22.343 -9.941 C -22.343 -6.112 -21.137 -2.783 -18.724 .048 C -16.199 2.991 -13.061 4.471 -9.298 4.471 C -5.518 4.471 -2.43 2.976 0 0 M -27.153 6.787 C -31.141 2.235 -33.136 -3.538 -33.136 -10.504 C -33.136 -16.696 -31.157 -22.117 -27.201 -26.766 C -23.018 -31.639 -17.888 -34.068 -11.791 -34.068 C -9.314 -34.068 -6.821 -33.441 -4.343 -32.186 C -2.735 -31.399 -1.014 -30.256 .836 -28.744 C 2.348 -27.521 3.2 -26.91 3.377 -26.91 C 3.666 -26.91 3.972 -28.004 4.278 -30.208 C 4.6 -32.412 5.05 -33.505 5.645 -33.505 C 6.498 -33.505 7.785 -33.409 9.538 -33.2 C 11.275 -32.991 12.578 -32.894 13.446 -32.894 C 14.315 -32.894 14.734 -32.444 14.701 -31.527 L 14.653 -30.867 C 13.865 -17.083 13.462 -10.022 13.462 -9.715 C 13.462 -4.489 14.09 1.705 15.311 8.911 C 15.409 9.345 15.442 9.635 15.442 9.748 C 15.442 10.198 14.154 10.696 11.581 11.26 C 9.265 11.726 7.672 11.968 6.819 11.968 C 6.289 11.968 5.854 10.987 5.5 8.992 C 5.162 7.013 4.889 6.031 4.713 6.031 C 4.616 6.031 4.519 6.08 4.422 6.176 C 3.297 7.367 2.46 8.284 1.93 8.911 C -1.657 12.241 -5.856 13.897 -10.664 13.897 C -17.469 13.897 -22.97 11.533 -27.153 6.787 " fill="#ffffff"/>
<path transform="matrix(1,0,0,-1,1214.6104,618.5066)" d="M 0 0 C 2.059 -.032 3.604 -.049 4.632 -.049 C 5.26 -.049 5.582 .306 5.582 .997 C 5.582 3.088 5.55 6.241 5.486 10.423 C 5.422 14.589 5.388 17.742 5.388 19.833 C 5.388 20.846 5.422 22.359 5.47 24.368 C 5.502 26.379 5.534 27.86 5.534 28.841 C 5.534 34.47 4.73 38.54 3.138 41.049 C .966 44.475 -3.072 46.18 -8.974 46.18 C -12.063 46.18 -15.248 45.183 -18.546 43.173 C -21.215 41.258 -23.371 39.65 -24.996 38.362 C -25.574 40.342 -25.928 42.304 -26.09 44.25 C -26.154 44.749 -26.282 45.006 -26.459 45.006 C -26.62 45.006 -28.39 44.733 -31.768 44.186 C -35.145 43.622 -36.947 43.333 -37.156 43.301 C -37.574 43.188 -37.767 42.963 -37.767 42.641 C -37.767 42.529 -37.72 42.32 -37.639 42.03 C -36.223 36.385 -35.516 30.208 -35.516 23.517 C -35.516 21.007 -35.548 17.259 -35.628 12.306 C -35.708 7.335 -35.74 3.619 -35.74 1.126 C -35.74 .402 -35.419 .049 -34.759 .049 C -33.745 .049 -32.251 .032 -30.24 0 C -28.229 -.032 -26.717 -.049 -25.703 -.049 C -25.108 -.049 -24.819 .354 -24.819 1.126 L -24.819 29.404 C -24.819 30.852 -23.339 32.508 -20.379 34.357 C -17.596 36.112 -15.409 36.996 -13.833 36.996 C -10.439 36.996 -8.123 36.112 -6.868 34.357 C -5.822 32.877 -5.307 30.353 -5.307 26.766 C -5.307 25.511 -5.291 23.629 -5.259 21.136 C -5.226 18.643 -5.211 16.76 -5.211 15.507 C -5.211 13.93 -5.259 11.582 -5.357 8.428 C -5.453 5.292 -5.5 2.96 -5.5 1.415 C -5.5 .498 -5.211 .049 -4.649 .049 C -3.603 .049 -2.058 .032 0 0 " fill="#ffffff"/>
<path transform="matrix(1,0,0,-1,1239.9436,585.0496)" d="M 0 0 C 2.108 2.703 4.842 4.054 8.236 4.054 C 11.663 4.054 14.429 2.719 16.536 .048 C 18.45 -2.396 19.416 -5.389 19.416 -8.911 C 19.416 -12.321 18.418 -15.281 16.44 -17.758 C 14.301 -20.461 11.565 -21.811 8.236 -21.811 C 4.875 -21.811 2.156 -20.461 .05 -17.758 C -1.897 -15.281 -2.878 -12.321 -2.878 -8.911 C -2.878 -5.421 -1.913 -2.445 0 0 M 5.936 -30.015 C 11.309 -30.015 15.732 -27.891 19.222 -23.661 C 19.351 -25.945 19.416 -27.425 19.416 -28.085 C 19.416 -31.06 18.241 -33.344 15.877 -34.92 C 13.834 -36.304 11.26 -36.995 8.156 -36.995 C 3.411 -36.995 -1.318 -35.644 -6.03 -32.943 C -6.289 -32.782 -6.498 -32.701 -6.643 -32.701 C -6.996 -32.701 -7.221 -32.975 -7.302 -33.506 C -8.25 -38.492 -8.718 -40.824 -8.718 -40.47 C -8.718 -40.792 -8.379 -41.162 -7.688 -41.611 C -3.281 -44.314 2.478 -45.665 9.604 -45.665 C 16.987 -45.665 22.359 -43.784 25.721 -40.004 C 28.937 -36.448 30.53 -30.948 30.53 -23.469 C 30.53 -19.688 30.562 -14.026 30.627 -6.482 C 30.691 1.078 30.722 6.74 30.722 10.503 C 30.722 11.163 30.498 11.581 30.064 11.741 C 29.774 11.854 28.101 12.209 25.013 12.804 C 21.94 13.383 20.252 13.672 19.93 13.672 C 19.561 13.672 19.368 12.723 19.368 10.841 C 19.368 10.407 19.399 9.731 19.464 8.831 C 19.528 7.945 19.561 7.287 19.561 6.885 C 19.561 6.322 19.432 6.032 19.173 6.032 C 18.949 6.032 18.595 6.369 18.096 7.028 C 15.04 11.018 10.923 13.013 5.743 13.013 C -.128 13.013 -4.905 10.776 -8.573 6.322 C -12.031 2.139 -13.769 -2.928 -13.769 -8.911 C -13.769 -14.782 -11.967 -19.721 -8.395 -23.742 C -4.648 -27.923 .13 -30.015 5.936 -30.015 " fill="#ffffff"/>
<path transform="matrix(1,0,0,-1,1322.8297,617.13919)" d="M 0 0 C 0 2.3 -.064 5.726 -.209 10.294 C -.354 14.863 -.418 18.304 -.418 20.589 C -.418 22.921 -.337 26.395 -.145 31.028 C .048 35.66 .146 39.134 .146 41.419 C .146 42.529 -.322 43.075 -1.223 43.075 L -9.007 43.075 C -10.294 43.075 -10.937 42.303 -10.937 40.759 C -10.937 26.525 -11.018 18.24 -11.163 15.876 C -11.259 13.994 -12.739 12.032 -15.602 9.989 C -18.304 8.043 -20.636 7.061 -22.614 7.061 C -27.263 7.061 -30.271 8.766 -31.622 12.16 C -32.411 14.042 -32.796 17.741 -32.796 23.226 C -32.796 25.494 -32.748 27.569 -32.651 29.452 C -32.62 30.706 -32.394 32.862 -31.943 35.902 C -31.542 38.765 -31.332 40.807 -31.332 42.03 C -31.332 42.721 -31.655 43.075 -32.282 43.075 C -33.198 43.075 -34.55 43.091 -36.383 43.124 C -38.201 43.156 -39.568 43.172 -40.485 43.172 C -41.241 43.172 -41.756 42.562 -42.029 41.323 C -43.203 36.273 -43.782 30.095 -43.782 22.808 C -43.782 14.733 -43.091 9.136 -41.707 6.032 C -39.472 1.013 -34.887 -1.512 -27.938 -1.512 C -22.823 -1.512 -17.644 .772 -12.401 5.324 C -12.08 5.614 -11.838 5.742 -11.693 5.742 C -11.404 5.742 -11.227 4.568 -11.146 2.22 C -11.066 -.145 -10.841 -1.319 -10.455 -1.319 C -4.342 -1.319 -1.142 -1.286 -.9 -1.222 C -.306 -1.029 0 -.628 0 0 " fill="#ffffff"/>
<path transform="matrix(1,0,0,-1,1155.4977,605.3167)" d="M 0 0 C -2.493 -2.976 -5.565 -4.471 -9.249 -4.471 C -13.011 -4.471 -16.149 -3.007 -18.675 -.08 C -21.087 2.702 -22.293 5.999 -22.293 9.811 C -22.293 13.64 -21.087 16.97 -18.675 19.8 C -16.149 22.743 -13.011 24.224 -9.249 24.224 C -5.468 24.224 -2.38 22.728 .049 19.752 C 2.334 16.986 3.475 13.671 3.475 9.811 C 3.475 6.064 2.318 2.799 0 0 M 11.63 31.012 C 9.314 31.479 7.722 31.72 6.868 31.72 C 6.339 31.72 5.904 30.739 5.55 28.744 C 5.212 26.765 4.939 25.784 4.762 25.784 C 4.666 25.784 4.568 25.833 4.472 25.928 C 3.346 27.119 2.51 28.036 1.979 28.664 C -1.608 31.993 -5.806 33.65 -10.615 33.65 C -17.42 33.65 -22.92 31.285 -27.103 26.54 C -31.092 21.988 -33.086 16.214 -33.086 9.249 C -33.086 3.057 -31.108 -2.364 -27.151 -7.014 C -22.969 -11.887 -17.838 -14.316 -11.742 -14.316 C -9.265 -14.316 -6.771 -13.688 -4.293 -12.434 C -2.686 -11.646 -.965 -10.503 .886 -8.992 C 2.398 -7.769 3.25 -7.158 3.427 -7.158 C 3.716 -7.158 4.022 -8.252 4.328 -10.455 C 4.649 -12.659 5.1 -13.753 5.695 -13.753 C 6.547 -13.753 7.834 -13.656 9.587 -13.447 C 11.324 -13.239 12.628 -13.141 13.496 -13.141 C 14.365 -13.141 14.783 -12.692 14.75 -11.775 L 14.703 -11.115 C 13.914 2.67 13.512 9.731 13.512 10.037 C 13.512 15.264 14.139 21.458 15.361 28.664 C 15.459 29.098 15.491 29.387 15.491 29.5 C 15.491 29.95 14.203 30.449 11.63 31.012 " fill="#ffffff"/>
<path transform="matrix(1,0,0,-1,1443.8545,591.6454)" d="M 0 0 C 0 2.896 1.109 5.502 3.361 7.818 C 5.613 10.151 8.171 11.308 11.066 11.308 C 13.64 11.308 15.956 10.311 18.014 8.3 C 20.074 6.291 21.103 3.974 21.103 1.368 C 21.103 .998 20.186 .676 18.369 .419 C 11.902 -.513 6.337 -.996 1.688 -.996 C .563 -.996 0 -.658 0 0 M 28.486 -12.867 C 28.406 -12.803 28.229 -12.771 27.987 -12.771 C 27.488 -13.173 26.974 -13.591 26.475 -13.993 C 22.326 -17.194 17.774 -18.803 12.804 -18.803 C 9.924 -18.803 7.221 -17.87 4.696 -16.019 C 2.059 -14.073 .547 -11.725 .128 -8.958 C 18.224 -7.607 27.955 -6.674 29.306 -6.176 C 31.317 -5.388 32.314 -3.828 32.314 -1.512 C 32.314 4.521 30.384 9.652 26.523 13.85 C 22.567 18.192 17.629 20.364 11.725 20.364 C 5.372 20.364 .016 17.855 -4.343 12.868 C -8.493 8.059 -10.569 2.414 -10.569 -4.053 C -10.569 -11.307 -8.397 -17.114 -4.054 -21.456 C .273 -25.815 6.08 -27.987 13.382 -27.987 C 20.605 -27.987 26.523 -25.542 31.14 -20.636 C 31.638 -20.106 31.896 -19.752 31.896 -19.559 C 31.896 -19.398 31.35 -18.256 30.239 -16.132 C 29.145 -14.026 28.55 -12.932 28.486 -12.867 " fill="#ffffff"/>
<path transform="matrix(1,0,0,-1,1413.3084,602.8074)" d="M 0 0 C -2.14 -2.703 -4.874 -4.054 -8.204 -4.054 C -11.566 -4.054 -14.285 -2.703 -16.391 0 C -18.337 2.477 -19.318 5.436 -19.318 8.846 C -19.318 12.337 -18.354 15.313 -16.439 17.758 C -14.333 20.461 -11.598 21.812 -8.204 21.812 C -4.777 21.812 -2.011 20.477 .096 17.806 C 2.01 15.362 2.976 12.369 2.976 8.846 C 2.976 5.436 1.978 2.477 0 0 M 13.624 29.499 C 13.333 29.612 11.661 29.967 8.573 30.562 C 5.5 31.14 3.812 31.43 3.49 31.43 C 3.12 31.43 2.928 30.481 2.928 28.599 C 2.928 28.165 2.959 27.489 3.024 26.588 C 3.088 25.703 3.12 25.045 3.12 24.642 C 3.12 24.079 2.992 23.79 2.734 23.79 C 2.509 23.79 2.155 24.127 1.656 24.786 C -1.4 28.776 -5.517 30.77 -10.697 30.77 C -16.568 30.77 -21.346 28.534 -25.012 24.079 C -28.471 19.897 -30.208 14.829 -30.208 8.846 C -30.208 2.976 -28.407 -1.963 -24.835 -5.984 C -21.087 -10.165 -16.31 -12.257 -10.504 -12.257 C -5.132 -12.257 -.708 -10.133 2.783 -5.903 C 2.911 -8.188 2.976 -9.667 2.976 -10.327 C 2.976 -13.302 1.801 -15.586 -.564 -17.163 C -2.605 -18.546 -5.18 -19.238 -8.284 -19.238 C -13.029 -19.238 -17.758 -17.887 -22.47 -15.185 C -22.729 -15.024 -22.938 -14.943 -23.083 -14.943 C -23.436 -14.943 -23.661 -15.217 -23.742 -15.748 C -24.691 -20.734 -25.158 -23.066 -25.158 -22.713 C -25.158 -23.034 -24.819 -23.404 -24.127 -23.854 C -19.721 -26.556 -13.962 -27.907 -6.836 -27.907 C .547 -27.907 5.919 -26.026 9.281 -22.246 C 12.497 -18.691 14.09 -13.19 14.09 -5.711 C 14.09 -1.93 14.123 3.732 14.187 11.276 C 14.251 18.836 14.283 24.498 14.283 28.261 C 14.283 28.921 14.058 29.339 13.624 29.499 " fill="#ffffff"/>
<path transform="matrix(1,0,0,-1,1182.1754,649.8808)" d="M 0 0 C -1.312 0 -2.442 -.396 -3.38 -1.191 C -4.39 -2.044 -4.896 -3.115 -4.896 -4.402 C -4.896 -7.288 -3.26 -8.732 0 -8.732 C 3.223 -8.732 4.835 -7.288 4.835 -4.402 C 4.835 -3.115 4.354 -2.056 3.403 -1.226 C 2.453 -.408 1.323 0 0 0 " fill="#ffffff"/>
<path transform="matrix(1,0,0,-1,1302.3057,676.0644)" d="M 0 0 C -4.835 -.697 -8.997 -1.058 -12.473 -1.058 C -13.315 -1.058 -13.735 -.806 -13.735 -.313 C -13.735 1.853 -12.906 3.801 -11.222 5.532 C -9.538 7.277 -7.626 8.143 -5.46 8.143 C -3.536 8.143 -1.804 7.397 -.265 5.893 C 1.275 4.39 2.045 2.658 2.045 .71 C 2.045 .433 1.359 .193 0 0 M 10.428 -1.444 C 10.428 3.067 8.985 6.904 6.098 10.043 C 3.14 13.29 -.553 14.914 -4.968 14.914 C -9.718 14.914 -13.723 13.037 -16.983 9.309 C -20.085 5.713 -21.638 1.492 -21.638 -3.344 C -21.638 -8.768 -20.014 -13.11 -16.767 -16.357 C -13.531 -19.616 -9.189 -21.241 -3.729 -21.241 C 1.672 -21.241 6.098 -19.412 9.55 -15.744 C 9.922 -15.347 10.115 -15.082 10.115 -14.938 C 10.115 -14.818 9.707 -13.964 8.876 -12.376 C 8.058 -10.801 7.614 -9.983 7.565 -9.935 C 7.505 -9.887 7.373 -9.862 7.192 -9.862 C 6.819 -10.163 6.435 -10.476 6.062 -10.777 C 2.959 -13.17 -.445 -14.373 -4.162 -14.373 C -6.315 -14.373 -8.336 -13.675 -10.223 -12.292 C -12.196 -10.837 -13.327 -9.081 -13.639 -7.012 C -.109 -6.002 7.168 -5.304 8.179 -4.931 C 9.682 -4.342 10.428 -3.175 10.428 -1.444 " fill="#ffffff"/>
<path transform="matrix(1,0,0,-1,1172.3843,689.3067)" d="M 0 0 C -.686 0 -1.731 -.157 -3.139 -.481 C -4.546 -.794 -5.616 -.95 -6.35 -.95 C -8.106 -.95 -9.273 -.349 -9.838 .878 C -10.21 1.672 -10.404 3.091 -10.404 5.112 L -10.404 10.356 C -10.404 13.363 -10.344 15.696 -10.223 17.368 C -10.127 18.703 -9.995 19.376 -9.802 19.376 C -8.864 19.376 -7.445 19.316 -5.532 19.184 C -3.632 19.052 -2.212 18.992 -1.274 18.992 C -.613 18.992 -.288 19.208 -.288 19.665 C -.288 20.014 -.3 20.556 -.325 21.277 C -.348 22.011 -.361 22.551 -.361 22.901 C -.361 23.201 -.312 23.67 -.24 24.296 C -.156 24.921 -.108 25.366 -.108 25.654 C -.108 25.932 -.312 26.076 -.709 26.076 L -9.164 26.076 C -9.802 26.076 -10.115 26.413 -10.115 27.099 C -10.115 28.133 -10.043 29.684 -9.887 31.741 C -9.741 33.81 -9.657 35.361 -9.657 36.396 C -9.657 36.84 -9.935 37.105 -10.476 37.177 C -14.673 37.899 -16.886 38.26 -17.09 38.26 C -17.752 38.26 -18.077 37.406 -18.077 35.698 C -18.077 34.723 -18.053 33.281 -17.993 31.356 C -17.933 29.431 -17.909 28 -17.909 27.062 C -17.909 26.148 -18.45 25.667 -19.532 25.619 C -20.086 25.595 -20.662 25.583 -21.253 25.583 C -21.938 25.462 -22.311 25.125 -22.382 24.561 C -22.479 23.802 -22.527 23.093 -22.527 22.407 C -22.527 20.604 -22.274 19.641 -21.781 19.521 C -20.94 19.497 -20.073 19.485 -19.208 19.485 C -18.245 19.413 -17.764 18.896 -17.764 17.933 C -17.764 15.936 -17.812 12.929 -17.909 8.924 C -18.005 4.919 -18.041 1.924 -18.041 -.072 C -18.041 -5.051 -15.299 -7.541 -9.802 -7.541 C -5.664 -7.541 -2.634 -7.085 -.709 -6.17 C -.361 -6.002 -.132 -5.845 -.036 -5.677 C 0 -5.581 .037 -5.329 .061 -4.895 C .085 -4.57 .157 -3.861 .277 -2.754 C .373 -1.853 .421 -1.154 .421 -.637 C .421 -.216 .277 0 0 0 " fill="#ffffff"/>
<path transform="matrix(1,0,0,-1,1251.0321,664.4698)" d="M 0 0 C 0 .83 -.349 1.239 -1.022 1.239 L -6.842 1.239 C -7.805 1.239 -8.286 .661 -8.286 -.493 C -8.286 -11.137 -8.346 -17.332 -8.455 -19.1 C -8.526 -20.507 -9.633 -21.974 -11.774 -23.502 C -13.795 -24.957 -15.539 -25.691 -17.018 -25.691 C -20.494 -25.691 -22.744 -24.416 -23.754 -21.878 C -24.343 -20.471 -24.631 -17.705 -24.631 -13.603 C -24.631 -11.908 -24.595 -10.356 -24.523 -8.949 C -24.499 -8.01 -24.331 -6.398 -23.994 -4.125 C -23.693 -1.984 -23.537 -.457 -23.537 .457 C -23.537 .974 -23.778 1.239 -24.247 1.239 C -24.932 1.239 -25.943 1.251 -27.314 1.275 C -28.672 1.299 -29.695 1.311 -30.38 1.311 C -30.946 1.311 -31.331 .854 -31.535 -.072 C -32.414 -3.849 -32.846 -8.467 -32.846 -13.916 C -32.846 -19.954 -32.329 -24.139 -31.295 -26.46 C -29.623 -30.214 -26.195 -32.101 -20.999 -32.101 C -17.174 -32.101 -13.302 -30.393 -9.381 -26.99 C -9.141 -26.773 -8.96 -26.677 -8.851 -26.677 C -8.635 -26.677 -8.502 -27.555 -8.442 -29.311 C -8.382 -31.079 -8.214 -31.957 -7.925 -31.957 C -3.354 -31.957 -.961 -31.933 -.781 -31.885 C -.337 -31.74 -.108 -31.44 -.108 -30.971 C -.108 -29.251 -.156 -26.69 -.264 -23.273 C -.372 -19.858 -.42 -17.284 -.42 -15.576 C -.42 -13.831 -.36 -11.234 -.216 -7.77 C -.072 -4.306 0 -1.708 0 0 " fill="#ffffff"/>
<path transform="matrix(1,0,0,-1,1124.7681,681.6333)" d="M 0 0 C 0 .758 .024 1.889 .06 3.392 C .085 4.896 .108 6.002 .108 6.736 C .108 10.945 -.493 13.988 -1.684 15.864 C -3.308 18.426 -6.327 19.701 -10.741 19.701 C -13.05 19.701 -15.432 18.956 -17.898 17.452 C -19.894 16.021 -21.505 14.819 -22.72 13.856 C -23.153 15.336 -23.418 16.802 -23.538 18.258 C -23.586 18.631 -23.683 18.823 -23.815 18.823 C -23.935 18.823 -25.258 18.618 -27.784 18.21 C -30.31 17.789 -31.657 17.573 -31.813 17.549 C -32.126 17.464 -32.271 17.296 -32.271 17.055 C -32.271 16.971 -32.234 16.814 -32.174 16.598 C -31.116 12.377 -30.587 7.758 -30.587 2.755 C -30.587 .878 -30.61 -1.924 -30.671 -5.629 C -30.731 -9.345 -30.754 -12.124 -30.754 -13.988 C -30.754 -14.529 -30.515 -14.794 -30.021 -14.794 C -29.263 -14.794 -28.144 -14.806 -26.642 -14.83 C -25.138 -14.854 -24.007 -14.866 -23.249 -14.866 C -22.804 -14.866 -22.588 -14.565 -22.588 -13.988 L -22.588 7.157 C -22.588 8.239 -21.482 9.478 -19.268 10.861 C -17.188 12.172 -15.551 12.833 -14.373 12.833 C -11.835 12.833 -10.104 12.172 -9.165 10.861 C -8.384 9.754 -7.998 7.866 -7.998 5.184 C -7.998 4.246 -7.986 2.839 -7.962 .975 C -7.938 -.89 -7.927 -2.297 -7.927 -3.235 C -7.927 -4.414 -7.962 -6.17 -8.035 -8.527 C -8.106 -10.873 -8.143 -12.617 -8.143 -13.772 C -8.143 -14.457 -7.927 -14.794 -7.505 -14.794 C -6.724 -14.794 -5.569 -14.806 -4.029 -14.83 C -2.49 -14.854 -1.335 -14.866 -.565 -14.866 C -.097 -14.866 .144 -14.601 .144 -14.084 C .144 -12.521 .12 -10.164 .072 -7.036 C .024 -3.921 0 -1.564 0 0 " fill="#ffffff"/>
<path transform="matrix(1,0,0,-1,1277.4324,689.3067)" d="M 0 0 C -.686 0 -1.732 -.157 -3.139 -.481 C -4.546 -.794 -5.616 -.95 -6.35 -.95 C -8.106 -.95 -9.273 -.349 -9.838 .878 C -10.21 1.672 -10.404 3.091 -10.404 5.112 L -10.404 10.356 C -10.404 13.363 -10.344 15.696 -10.223 17.368 C -10.127 18.703 -9.995 19.376 -9.802 19.376 C -8.864 19.376 -7.445 19.316 -5.532 19.184 C -3.632 19.052 -2.213 18.992 -1.275 18.992 C -.613 18.992 -.288 19.208 -.288 19.665 C -.288 20.014 -.3 20.556 -.325 21.277 C -.348 22.011 -.361 22.551 -.361 22.901 C -.361 23.201 -.312 23.67 -.24 24.296 C -.156 24.921 -.108 25.366 -.108 25.654 C -.108 25.932 -.312 26.076 -.709 26.076 L -9.165 26.076 C -9.802 26.076 -10.114 26.413 -10.114 27.099 C -10.114 28.133 -10.043 29.684 -9.887 31.741 C -9.742 33.81 -9.657 35.361 -9.657 36.396 C -9.657 36.84 -9.935 37.105 -10.476 37.177 C -14.673 37.899 -16.886 38.26 -17.09 38.26 C -17.753 38.26 -18.077 37.406 -18.077 35.698 C -18.077 34.723 -18.053 33.281 -17.993 31.356 C -17.933 29.431 -17.909 28 -17.909 27.062 C -17.909 26.148 -18.45 25.667 -19.532 25.619 C -20.086 25.595 -20.663 25.583 -21.253 25.583 C -21.938 25.462 -22.312 25.125 -22.383 24.561 C -22.479 23.802 -22.527 23.093 -22.527 22.407 C -22.527 20.604 -22.274 19.641 -21.782 19.521 C -20.94 19.497 -20.074 19.485 -19.208 19.485 C -18.245 19.413 -17.764 18.896 -17.764 17.933 C -17.764 15.936 -17.812 12.929 -17.909 8.924 C -18.005 4.919 -18.041 1.924 -18.041 -.072 C -18.041 -5.051 -15.299 -7.541 -9.802 -7.541 C -5.665 -7.541 -2.634 -7.085 -.709 -6.17 C -.361 -6.002 -.132 -5.845 -.036 -5.677 C 0 -5.581 .036 -5.329 .06 -4.895 C .085 -4.57 .157 -3.861 .277 -2.754 C .373 -1.853 .421 -1.154 .421 -.637 C .421 -.216 .277 0 0 0 " fill="#ffffff"/>
<path transform="matrix(1,0,0,-1,1186.156,663.15896)" d="M 0 0 C -.445 0 -1.106 -.06 -1.984 -.18 C -2.875 -.3 -3.536 -.36 -3.981 -.36 C -4.426 -.36 -5.087 -.3 -5.966 -.18 C -6.855 -.06 -7.505 0 -7.926 0 C -8.419 0 -8.66 -.204 -8.66 -.601 C -8.66 -2.441 -8.527 -5.184 -8.263 -8.852 C -7.986 -12.509 -7.853 -15.263 -7.853 -17.092 C -7.853 -18.739 -7.89 -21.192 -7.974 -24.44 C -8.058 -27.7 -8.106 -30.129 -8.106 -31.752 C -8.106 -32.715 -7.853 -33.196 -7.361 -33.196 L -.493 -33.196 C -.072 -33.196 .145 -32.955 .145 -32.462 C .145 -30.766 .109 -28.217 .036 -24.789 C -.036 -21.373 -.072 -18.81 -.072 -17.092 C -.072 -15.263 .049 -12.521 .265 -8.864 C .493 -5.208 .602 -2.477 .602 -.674 C .602 -.229 .397 0 0 0 " fill="#ffffff"/>
<path transform="matrix(1,0,0,-1,1212.9414,689.3067)" d="M 0 0 C -.686 0 -1.731 -.157 -3.139 -.481 C -4.546 -.794 -5.617 -.95 -6.35 -.95 C -8.106 -.95 -9.273 -.349 -9.838 .878 C -10.211 1.672 -10.404 3.091 -10.404 5.112 L -10.404 10.356 C -10.404 13.363 -10.344 15.696 -10.223 17.368 C -10.127 18.703 -9.995 19.376 -9.802 19.376 C -8.864 19.376 -7.445 19.316 -5.533 19.184 C -3.632 19.052 -2.213 18.992 -1.274 18.992 C -.613 18.992 -.288 19.208 -.288 19.665 C -.288 20.014 -.3 20.556 -.325 21.277 C -.348 22.011 -.361 22.551 -.361 22.901 C -.361 23.201 -.312 23.67 -.24 24.296 C -.156 24.921 -.108 25.366 -.108 25.654 C -.108 25.932 -.312 26.076 -.709 26.076 L -9.165 26.076 C -9.802 26.076 -10.114 26.413 -10.114 27.099 C -10.114 28.133 -10.043 29.684 -9.886 31.741 C -9.742 33.81 -9.658 35.361 -9.658 36.396 C -9.658 36.84 -9.934 37.105 -10.476 37.177 C -14.673 37.899 -16.886 38.26 -17.091 38.26 C -17.753 38.26 -18.077 37.406 -18.077 35.698 C -18.077 34.723 -18.053 33.281 -17.993 31.356 C -17.933 29.431 -17.909 28 -17.909 27.062 C -17.909 26.148 -18.45 25.667 -19.532 25.619 C -20.086 25.595 -20.663 25.583 -21.253 25.583 C -21.938 25.462 -22.311 25.125 -22.383 24.561 C -22.479 23.802 -22.527 23.093 -22.527 22.407 C -22.527 20.604 -22.275 19.641 -21.782 19.521 C -20.939 19.497 -20.074 19.485 -19.208 19.485 C -18.246 19.413 -17.764 18.896 -17.764 17.933 C -17.764 15.936 -17.812 12.929 -17.909 8.924 C -18.005 4.919 -18.041 1.924 -18.041 -.072 C -18.041 -5.051 -15.299 -7.541 -9.802 -7.541 C -5.665 -7.541 -2.633 -7.085 -.709 -6.17 C -.361 -6.002 -.132 -5.845 -.036 -5.677 C 0 -5.581 .036 -5.329 .06 -4.895 C .085 -4.57 .156 -3.861 .277 -2.754 C .373 -1.853 .422 -1.154 .422 -.637 C .422 -.216 .277 0 0 0 " fill="#ffffff"/>
<path transform="matrix(1,0,0,-1,1139.8501,675.1145)" d="M 0 0 C -1.9 1.083 -2.851 2.153 -2.851 3.212 C -2.851 4.691 -1.949 5.677 -.132 6.171 C 1.395 6.363 2.911 6.555 4.415 6.772 C 4.859 6.844 5.076 7.001 5.076 7.265 C 5.076 7.59 4.859 8.552 4.427 10.152 C 3.993 11.752 3.705 12.702 3.548 13.014 C 3.392 13.315 3.151 13.472 2.827 13.472 C -.842 13.472 -3.873 12.581 -6.266 10.825 C -8.924 8.853 -10.248 6.098 -10.248 2.574 C -10.248 -.12 -9.273 -2.309 -7.325 -3.98 C -6.855 -4.377 -5.039 -5.448 -1.864 -7.18 C .084 -8.262 1.059 -9.453 1.059 -10.74 C 1.059 -13.471 -1.154 -14.829 -5.593 -14.829 C -5.569 -14.829 -5.929 -14.793 -6.651 -14.721 C -7.216 -14.649 -7.649 -14.649 -7.962 -14.721 C -8.383 -14.818 -8.588 -15.022 -8.588 -15.323 C -8.588 -15.816 -8.527 -16.574 -8.395 -17.608 C -8.275 -18.643 -8.202 -19.424 -8.202 -19.942 C -8.202 -20.904 -8.01 -21.481 -7.601 -21.661 C -7.421 -21.733 -6.615 -21.769 -5.208 -21.769 C -1.564 -21.769 1.515 -20.808 4.053 -18.883 C 6.856 -16.766 8.251 -13.964 8.251 -10.464 C 8.251 -7.589 7.289 -5.244 5.365 -3.416 C 4.607 -2.706 2.827 -1.563 0 0 " fill="#ffffff"/>
<path transform="matrix(1,0,0,-1,1085.9425,671.3733)" d="M 0 0 C 0 2.634 .085 6.579 .276 11.835 C .469 17.103 .553 21.048 .553 23.682 C .553 24.151 .252 24.379 -.361 24.379 C -.782 24.379 -1.419 24.343 -2.261 24.283 C -3.103 24.211 -3.74 24.175 -4.161 24.175 C -4.63 24.175 -5.328 24.211 -6.242 24.283 C -7.156 24.343 -7.842 24.379 -8.286 24.379 C -8.828 24.379 -9.093 24.091 -9.093 23.502 C -9.093 20.892 -8.973 16.982 -8.732 11.751 C -8.48 6.519 -8.359 2.609 -8.359 0 C -8.359 -2.707 -8.48 -6.748 -8.732 -12.136 C -8.973 -17.536 -9.093 -21.565 -9.093 -24.248 C -9.093 -24.789 -8.804 -25.054 -8.215 -25.054 C -7.794 -25.054 -7.144 -25.018 -6.278 -24.945 C -5.412 -24.872 -4.751 -24.837 -4.305 -24.837 C -3.885 -24.837 -3.236 -24.872 -2.369 -24.945 C -1.492 -25.018 -.854 -25.054 -.433 -25.054 C .252 -25.054 .59 -24.801 .59 -24.307 C .59 -21.614 .494 -17.561 .289 -12.16 C .096 -6.76 0 -2.707 0 0 " fill="#ffffff"/>
<path transform="matrix(1,0,0,-1,514.3034,701.921)" d="M 0 0 L 301.295 0 C 315.995 0 327.912 9.465 327.912 21.141 L 327.912 258.44 L 359.05 278.41 L 0 278.41 C -14.7 278.41 -26.617 268.945 -26.617 257.269 L -26.617 21.141 C -26.617 9.465 -14.7 0 0 0 " fill="#f47732"/>
</g>
<symbol id="font_1_2b4">
<path d="M .483 .124000009 L .22100002 .124000009 L .179 0 L 0 0 L .254 .702 L .45200003 .702 L .7060001 0 L .52500006 0 L .483 .124000009 M .439 .256 L .35200004 .513 L .266 .256 L .439 .256 Z "/>
</symbol>
<symbol id="font_1_2c3">
<path d="M .535 .476 C .535 .43533335 .5256667 .398 .507 .36400003 C .48833335 .3306667 .45966665 .30366669 .421 .28300003 C .38233338 .26233337 .33433334 .252 .277 .252 L .171 .252 L .171 0 L 0 0 L 0 .702 L .277 .702 C .333 .70199999 .38033334 .6923334 .41900004 .67300006 C .45766673 .65366676 .48666669 .62700006 .50600007 .59300008 C .52533337 .5590001 .535 .52000007 .535 .476 M .264 .388 C .29666669 .388 .321 .3956667 .337 .411 C .35300002 .42633335 .36099998 .44800005 .361 .476 C .36099998 .504 .35300002 .52566668 .337 .541 C .321 .55633339 .29666669 .564 .264 .564 L .171 .564 L .171 .388 L .264 .388 Z "/>
</symbol>
<symbol id="font_1_2c5">
<path d="M .358 0 L .21200001 .26500003 L .171 .26500003 L .171 0 L 0 0 L 0 .702 L .287 .702 C .34233333 .70199999 .38933335 .6923334 .428 .67300006 C .46733336 .65366676 .49666668 .62700006 .51600006 .59300008 C .5353334 .5596667 .5450001 .5223334 .5450001 .48100005 C .5450001 .43433336 .53166678 .39266668 .50500008 .356 C .479 .31933335 .44033335 .29333339 .38900004 .27800004 L .55100008 0 L .358 0 M .171 .386 L .277 .386 C .30833335 .386 .33166669 .39366666 .347 .409 C .363 .42433334 .37100003 .446 .37100003 .47400005 C .37100003 .5006667 .363 .5216667 .347 .537 C .33166669 .55233338 .30833335 .56 .277 .56 L .171 .56 L .171 .386 Z "/>
</symbol>
<symbol id="font_1_2b8">
<path d="M .171 .565 L .171 .423 L .4 .423 L .4 .291 L .171 .291 L .171 .13700001 L .43 .13700001 L .43 0 L 0 0 L 0 .702 L .43 .702 L .43 .565 L .171 .565 Z "/>
</symbol>
<symbol id="font_1_2c1">
<path d="M .6280001 0 L .45700006 0 L .171 .43300004 L .171 0 L 0 0 L 0 .702 L .171 .702 L .45700006 .26700003 L .45700006 .702 L .6280001 .702 L .6280001 0 Z "/>
</symbol>
<symbol id="font_1_2b7">
<path d="M .263 .702 C .337 .70199999 .40166668 .68733337 .45700006 .65800008 C .5123334 .6286667 .55500009 .5873334 .58500006 .53400006 C .6156667 .48133336 .63100007 .42033337 .63100007 .351 C .63100007 .28233335 .6156667 .22133334 .58500006 .16800002 C .55500009 .11466668 .512 .07333334 .456 .044000005 C .40066669 .014666668 .33633337 0 .263 0 L 0 0 L 0 .702 L .263 .702 M .252 .148 C .3166667 .148 .367 .16566667 .40300004 .201 C .43900005 .23633333 .45700006 .28633336 .45700006 .351 C .45700006 .41566668 .43900005 .466 .40300004 .50200006 C .367 .53800007 .3166667 .55600008 .252 .55600008 L .171 .55600008 L .171 .148 L .252 .148 Z "/>
</symbol>
<symbol id="font_1_2bc">
<path d="M .171 .702 L .171 0 L 0 0 L 0 .702 L .171 .702 Z "/>
</symbol>
<symbol id="font_1_2cd">
<path d="M .19400002 .14 L .496 .14 L .496 0 L 0 0 L 0 .13000001 L .3 .56200006 L 0 .56200006 L 0 .702 L .496 .702 L .496 .572 L .19400002 .14 Z "/>
</symbol>
<symbol id="font_1_2c2">
<path d="M .36100004 .0000000004656613 C .29500006 .0000000004656613 .23433335 .015333333 .17900002 .046 C .124333348 .07666667 .08066667 .119333337 .048 .17400001 C .016 .22933334 0 .29133336 0 .36 C 0 .42866669 .016 .4903334 .048 .5450001 C .08066667 .5996667 .124333348 .6423333 .17900002 .67300006 C .23433335 .7036667 .29500006 .71900007 .36100004 .71900007 C .42700006 .71900007 .4873334 .7036667 .54200008 .67300006 C .5973334 .6423333 .6406667 .5996667 .67200008 .5450001 C .704 .4903334 .72 .42866669 .72 .36 C .72 .29133336 .704 .22933334 .67200008 .17400001 C .64000007 .119333337 .5966667 .07666667 .54200008 .046 C .4873334 .015333333 .42700006 .0000000004656613 .36100004 .0000000004656613 M .36100004 .156 C .41700004 .156 .46166668 .17466669 .495 .21200001 C .52900007 .24933334 .54600009 .2986667 .54600009 .36 C .54600009 .42200003 .52900007 .47133336 .495 .5080001 C .46166668 .5453334 .41700004 .56400009 .36100004 .56400009 C .30433337 .56400009 .25900004 .54566678 .22500003 .50900009 C .19166668 .47233335 .17500001 .4226667 .17500001 .36 C .17500001 .298 .19166668 .24833335 .22500003 .21100001 C .25900004 .17433334 .30433337 .156 .36100004 .156 Z "/>
</symbol>
<symbol id="font_1_3">
<path d="M 0 0 Z "/>
</symbol>
<symbol id="font_1_2c0">
<path d="M .7950001 .702 L .7950001 0 L .6240001 0 L .6240001 .42100004 L .46700005 0 L .32900004 0 L .171 .42200003 L .171 0 L 0 0 L 0 .702 L .20199999 .702 L .39900003 .216 L .59400007 .702 L .7950001 .702 Z "/>
</symbol>
<symbol id="font_1_2c6">
<path d="M .27400003 .0000000004656613 C .22266667 .0000000004656613 .17666666 .008333334 .136 .025000003 C .09533334 .041666669 .06266667 .06633333 .038000004 .09900001 C .014000001 .13166668 .0013333336 .171 0 .21700001 L .18200001 .21700001 C .18466668 .191 .1936667 .171 .20900002 .157 C .22433336 .14366667 .24433334 .13700001 .26900003 .13700001 C .29433335 .13700001 .31433336 .14266669 .32900004 .154 C .34366668 .16600001 .35099999 .18233335 .351 .20300001 C .35099999 .22033334 .34500004 .23466669 .33300004 .246 C .3216667 .25733335 .30733336 .26666669 .29000003 .27400003 C .27333335 .28133337 .24933334 .28966669 .21800003 .29900003 C .17266667 .31300003 .13566667 .32700003 .107 .34100003 C .07833334 .35500003 .05366667 .3756667 .033 .40300004 C .0123333339 .43033336 .0020000004 .466 .0020000004 .51000007 C .0020000004 .57533338 .025666668 .6263334 .073 .66300007 C .12033334 .70033338 .182 .71900007 .25800003 .71900007 C .33533336 .71900007 .3976667 .70033338 .44500003 .66300007 C .49233339 .6263334 .5176667 .57500007 .521 .50900009 L .33600004 .50900009 C .3346667 .5316667 .32633338 .5493334 .31100003 .56200006 C .2956667 .5753334 .27600003 .5820001 .252 .5820001 C .23133333 .5820001 .21466668 .5763334 .20200002 .56500008 C .18933334 .5543334 .18300002 .5386667 .183 .51800009 C .18300002 .49533335 .19366665 .4776667 .215 .46500004 C .23633333 .45233337 .26966668 .43866668 .31500004 .42400003 C .36033336 .4086667 .39699999 .39400003 .425 .38000003 C .4536667 .36600004 .47833339 .34566669 .499 .319 C .5196667 .29233334 .53000006 .25800003 .53000006 .216 C .53000006 .176 .5196667 .13966666 .499 .107 C .479 .07433333 .4496667 .048333337 .411 .029000003 C .37233339 .009666667 .32666669 .0000000004656613 .27400003 .0000000004656613 Z "/>
</symbol>
<symbol id="font_1_2b6">
<path d="M 0 .35700003 C 0 .42633335 .015000001 .488 .045 .542 C .075 .59666666 .116666678 .639 .17000002 .669 C .22400002 .6996667 .285 .715 .35300002 .71500006 C .4363334 .715 .5076667 .693 .56700006 .64900007 C .62633338 .605 .66600009 .545 .68600007 .469 L .49800004 .469 C .48400007 .49833334 .46400009 .52066668 .43800003 .536 C .4126667 .55133339 .38366667 .559 .351 .559 C .29833336 .559 .2556667 .54066666 .22300002 .504 C .19033337 .46733336 .17400003 .41833339 .17400003 .35700003 C .17400003 .2956667 .19033337 .24666667 .22300002 .21000001 C .2556667 .17333333 .29833336 .155 .351 .155 C .38366667 .155 .4126667 .16266667 .43800003 .178 C .46400009 .19333335 .48400007 .21566667 .49800004 .245 L .68600007 .245 C .66600009 .16899999 .62633338 .109 .56700006 .065000008 C .5076667 .021666669 .4363334 0 .35300002 0 C .285 0 .22400002 .015000001 .17000002 .045 C .116666678 .07566667 .075 .11800001 .045 .172 C .015000001 .22600001 0 .28766669 0 .35700003 Z "/>
</symbol>
<symbol id="font_1_2c7">
<path d="M .54300007 .702 L .54300007 .565 L .35700003 .565 L .35700003 0 L .186 0 L .186 .565 L 0 .565 L 0 .702 L .54300007 .702 Z "/>
</symbol>
<symbol id="font_1_2bf">
<path d="M .171 .132 L .395 .132 L .395 0 L 0 0 L 0 .702 L .171 .702 L .171 .132 Z "/>
</symbol>
<symbol id="font_1_2ba">
<path d="M .495 .485 C .48233334 .5083334 .46400003 .526 .44000004 .53800007 C .41666673 .55066677 .38900004 .55700007 .35700003 .55700007 C .3016667 .55700007 .25733338 .5386667 .224 .50200006 C .19066668 .466 .17400003 .41766668 .17400003 .35700003 C .17400003 .29233337 .19133336 .24166668 .22600001 .205 C .26133336 .16900002 .30966667 .15100001 .37100003 .15100001 C .41300003 .15100001 .44833336 .16166668 .47700007 .183 C .50633338 .20433335 .5276667 .23500002 .541 .275 L .32400004 .275 L .32400004 .40100003 L .69600006 .40100003 L .69600006 .24200002 C .6833334 .19933336 .6616667 .15966667 .63100007 .12300001 C .601 .086333338 .5626667 .056666674 .51600006 .034 C .46933339 .011333334 .41666673 0 .35800005 0 C .2886667 0 .22666669 .015000001 .17200002 .045 C .11800001 .07566667 .07566667 .11800001 .045 .172 C .015000001 .22600001 0 .28766669 0 .35700003 C 0 .42633335 .015000001 .488 .045 .542 C .07566667 .59666666 .11800001 .639 .17200002 .669 C .22600003 .6996667 .28766669 .715 .35700003 .71500006 C .441 .715 .5116667 .6946667 .56900009 .65400007 C .62700006 .61333337 .66533336 .557 .684 .485 L .495 .485 Z "/>
</symbol>
<symbol id="font_1_2c8">
<path d="M .171 .70900008 L .171 .289 C .171 .24700003 .18133335 .21466668 .202 .192 C .22266668 .16933334 .25300003 .158 .293 .158 C .33300004 .158 .36366669 .16933334 .38500003 .192 C .40633334 .21466668 .41699998 .24700003 .417 .289 L .417 .70900008 L .588 .70900008 L .588 .29000003 C .588 .22733335 .5746667 .17433334 .54800006 .13100001 C .5213334 .08766667 .48533336 .055000009 .44 .033 C .39533333 .011 .34533335 .0000000004656613 .29 .0000000004656613 C .23466666 .0000000004656613 .185 .0106666679 .141 .032 C .09766667 .054000006 .06333334 .08666667 .038 .13000001 C .012666666 .17400001 0 .22733335 0 .29000003 L 0 .70900008 L .171 .70900008 Z "/>
</symbol>
<use xlink:href="#font_1_2b4" transform="matrix(29.7206,0,0,-29.7206,542.6967,512.7412)" fill="#ffffff"/>
<use xlink:href="#font_1_2c3" transform="matrix(29.7206,0,0,-29.7206,565.9679,512.7412)" fill="#ffffff"/>
<use xlink:href="#font_1_2c5" transform="matrix(29.7206,0,0,-29.7206,584.51358,512.7412)" fill="#ffffff"/>
<use xlink:href="#font_1_2b8" transform="matrix(29.7206,0,0,-29.7206,603.89138,512.7412)" fill="#ffffff"/>
<use xlink:href="#font_1_2c1" transform="matrix(29.7206,0,0,-29.7206,619.9702,512.7412)" fill="#ffffff"/>
<use xlink:href="#font_1_2b7" transform="matrix(29.7206,0,0,-29.7206,642.3201,512.7412)" fill="#ffffff"/>
<use xlink:href="#font_1_2bc" transform="matrix(29.7206,0,0,-29.7206,663.927,512.7412)" fill="#ffffff"/>
<use xlink:href="#font_1_2cd" transform="matrix(29.7206,0,0,-29.7206,672.33798,512.7412)" fill="#ffffff"/>
<use xlink:href="#font_1_2b4" transform="matrix(29.7206,0,0,-29.7206,689.04098,512.7412)" fill="#ffffff"/>
<use xlink:href="#font_1_2b7" transform="matrix(29.7206,0,0,-29.7206,712.31216,512.7412)" fill="#ffffff"/>
<use xlink:href="#font_1_2c2" transform="matrix(29.7206,0,0,-29.7206,733.0571,512.9493)" fill="#ffffff"/>
<use xlink:href="#font_1_2b7" transform="matrix(29.7206,0,0,-29.7206,544.06387,553.1909)" fill="#ffffff"/>
<use xlink:href="#font_1_2b8" transform="matrix(29.7206,0,0,-29.7206,565.6707,553.1909)" fill="#ffffff"/>
<use xlink:href="#font_1_3" transform="matrix(29.7206,0,0,-29.7206,579.9069,553.1909)" fill="#ffffff"/>
<use xlink:href="#font_1_2bc" transform="matrix(29.7206,0,0,-29.7206,588.05038,553.1909)" fill="#ffffff"/>
<use xlink:href="#font_1_2b7" transform="matrix(29.7206,0,0,-29.7206,596.81796,553.1909)" fill="#ffffff"/>
<use xlink:href="#font_1_2bc" transform="matrix(29.7206,0,0,-29.7206,618.4248,553.1909)" fill="#ffffff"/>
<use xlink:href="#font_1_2c2" transform="matrix(29.7206,0,0,-29.7206,626.3305,553.399)" fill="#ffffff"/>
<use xlink:href="#font_1_2c0" transform="matrix(29.7206,0,0,-29.7206,650.5528,553.1909)" fill="#ffffff"/>
<use xlink:href="#font_1_2b4" transform="matrix(29.7206,0,0,-29.7206,676.4692,553.1909)" fill="#ffffff"/>
<use xlink:href="#font_1_2c6" transform="matrix(29.7206,0,0,-29.7206,699.146,553.399)" fill="#ffffff"/>
<use xlink:href="#font_1_3" transform="matrix(29.7206,0,0,-29.7206,716.1759,553.1909)" fill="#ffffff"/>
<use xlink:href="#font_1_2b6" transform="matrix(29.7206,0,0,-29.7206,723.45748,553.33956)" fill="#ffffff"/>
<use xlink:href="#font_1_2c2" transform="matrix(29.7206,0,0,-29.7206,746.10458,553.399)" fill="#ffffff"/>
<use xlink:href="#font_1_2c0" transform="matrix(29.7206,0,0,-29.7206,770.32687,553.1909)" fill="#ffffff"/>
<use xlink:href="#font_1_2c0" transform="matrix(29.7206,0,0,-29.7206,544.06387,593.6406)" fill="#ffffff"/>
<use xlink:href="#font_1_2b8" transform="matrix(29.7206,0,0,-29.7206,571.34738,593.6406)" fill="#ffffff"/>
<use xlink:href="#font_1_2c7" transform="matrix(29.7206,0,0,-29.7206,586.2969,593.6406)" fill="#ffffff"/>
<use xlink:href="#font_1_2c2" transform="matrix(29.7206,0,0,-29.7206,604.1292,593.8487)" fill="#ffffff"/>
<use xlink:href="#font_1_2b7" transform="matrix(29.7206,0,0,-29.7206,628.3515,593.6406)" fill="#ffffff"/>
<use xlink:href="#font_1_2c2" transform="matrix(29.7206,0,0,-29.7206,649.0965,593.8487)" fill="#ffffff"/>
<use xlink:href="#font_1_2bf" transform="matrix(29.7206,0,0,-29.7206,673.3188,593.6406)" fill="#ffffff"/>
<use xlink:href="#font_1_2c2" transform="matrix(29.7206,0,0,-29.7206,686.6336,593.8487)" fill="#ffffff"/>
<use xlink:href="#font_1_2ba" transform="matrix(29.7206,0,0,-29.7206,709.994,593.78927)" fill="#ffffff"/>
<use xlink:href="#font_1_2bc" transform="matrix(29.7206,0,0,-29.7206,733.503,593.6406)" fill="#ffffff"/>
<use xlink:href="#font_1_2b4" transform="matrix(29.7206,0,0,-29.7206,740.90347,593.6406)" fill="#ffffff"/>
<use xlink:href="#font_1_3" transform="matrix(29.7206,0,0,-29.7206,762.33206,593.6406)" fill="#ffffff"/>
<use xlink:href="#font_1_2c1" transform="matrix(29.7206,0,0,-29.7206,544.06387,634.09036)" fill="#ffffff"/>
<use xlink:href="#font_1_2b4" transform="matrix(29.7206,0,0,-29.7206,565.04666,634.09036)" fill="#ffffff"/>
<use xlink:href="#font_1_2c7" transform="matrix(29.7206,0,0,-29.7206,587.18856,634.09036)" fill="#ffffff"/>
<use xlink:href="#font_1_2c8" transform="matrix(29.7206,0,0,-29.7206,605.79367,634.2984)" fill="#ffffff"/>
<use xlink:href="#font_1_2c5" transform="matrix(29.7206,0,0,-29.7206,626.83578,634.09036)" fill="#ffffff"/>
<use xlink:href="#font_1_2b4" transform="matrix(29.7206,0,0,-29.7206,644.84646,634.09036)" fill="#ffffff"/>
<use xlink:href="#font_1_2bf" transform="matrix(29.7206,0,0,-29.7206,668.1177,634.09036)" fill="#ffffff"/>
<path transform="matrix(1,0,0,-1,0,1125)" d="M 978.871 379.333 L 983.27297 379.333 L 983.27297 742.505 L 978.871 742.505 Z " fill="#ffffff"/>
</g>
</svg>
